<mxfile host="app.diagrams.net" agent="Mozilla/5.0 (Macintosh; Intel Mac OS X 10_15_7) AppleWebKit/605.1.15 (KHTML, like Gecko) Version/17.4.1 Safari/605.1.15" version="26.1.0">
  <diagram name="Page-1" id="e56a1550-8fbb-45ad-956c-1786394a9013">
    <mxGraphModel dx="1122" dy="761" grid="1" gridSize="10" guides="1" tooltips="1" connect="1" arrows="1" fold="1" page="1" pageScale="1" pageWidth="1100" pageHeight="850" background="none" math="0" shadow="0">
      <root>
        <mxCell id="0" />
        <mxCell id="1" parent="0" />
        <mxCell id="oBpY7kK_RExmCe1GZTvU-10" value="&amp;lt;&amp;lt;Boundary&amp;gt;&amp;gt;&lt;div&gt;UploadPDFPage&lt;/div&gt;" style="swimlane;childLayout=stackLayout;horizontal=1;startSize=50;horizontalStack=0;rounded=1;fontSize=14;fontStyle=0;strokeWidth=2;resizeParent=0;resizeLast=1;shadow=0;align=center;arcSize=4;whiteSpace=wrap;html=1;" vertex="1" parent="1">
          <mxGeometry x="340" y="57.5" width="260" height="190" as="geometry" />
        </mxCell>
        <mxCell id="oBpY7kK_RExmCe1GZTvU-11" value="&lt;font style=&quot;font-size: 15px;&quot;&gt;+selectFile()&lt;br&gt;+displayUploadStatus()&lt;br&gt;+cancelUpload()&lt;/font&gt;&lt;div&gt;&lt;font style=&quot;font-size: 15px;&quot;&gt;+reUploadFile()&lt;br&gt;&lt;/font&gt;&lt;/div&gt;&lt;div&gt;&lt;font style=&quot;font-size: 15px;&quot;&gt;&lt;font&gt;+selectQuiz&lt;code data-end=&quot;361&quot; data-start=&quot;347&quot;&gt;()&lt;/code&gt;&lt;/font&gt;&lt;br&gt;&lt;/font&gt;&lt;/div&gt;&lt;div&gt;&lt;font style=&quot;font-size: 15px;&quot;&gt;+selectFlashcards()&lt;/font&gt;&lt;br&gt;&lt;/div&gt;&lt;div&gt;&lt;font style=&quot;font-size: 16px;&quot;&gt;&lt;code data-end=&quot;361&quot; data-start=&quot;347&quot;&gt;&lt;font face=&quot;Verdana&quot;&gt;&lt;br&gt;&lt;/font&gt;&lt;/code&gt;&lt;/font&gt;&lt;/div&gt;&lt;div&gt;&lt;font style=&quot;font-size: 16px;&quot;&gt;&lt;code data-end=&quot;361&quot; data-start=&quot;347&quot;&gt;&lt;br&gt;&lt;/code&gt;&lt;/font&gt;&lt;/div&gt;" style="align=left;strokeColor=none;fillColor=none;spacingLeft=4;spacingRight=4;fontSize=12;verticalAlign=top;resizable=0;rotatable=0;part=1;html=1;whiteSpace=wrap;" vertex="1" parent="oBpY7kK_RExmCe1GZTvU-10">
          <mxGeometry y="50" width="260" height="140" as="geometry" />
        </mxCell>
        <mxCell id="oBpY7kK_RExmCe1GZTvU-14" style="edgeStyle=orthogonalEdgeStyle;rounded=0;orthogonalLoop=1;jettySize=auto;html=1;exitX=0.5;exitY=1;exitDx=0;exitDy=0;" edge="1" parent="oBpY7kK_RExmCe1GZTvU-10" source="oBpY7kK_RExmCe1GZTvU-11" target="oBpY7kK_RExmCe1GZTvU-11">
          <mxGeometry relative="1" as="geometry" />
        </mxCell>
        <mxCell id="oBpY7kK_RExmCe1GZTvU-12" value="&amp;lt;&amp;lt;Controller&amp;gt;&amp;gt;&lt;div&gt;&lt;span style=&quot;text-align: start;&quot;&gt;&lt;font style=&quot;font-size: 13px;&quot;&gt;PDFUploadController&lt;/font&gt;&lt;/span&gt;&lt;/div&gt;" style="swimlane;childLayout=stackLayout;horizontal=1;startSize=50;horizontalStack=0;rounded=1;fontSize=14;fontStyle=0;strokeWidth=2;resizeParent=0;resizeLast=1;shadow=0;dashed=0;align=center;arcSize=4;whiteSpace=wrap;html=1;" vertex="1" parent="1">
          <mxGeometry x="680" y="42.5" width="260" height="205" as="geometry" />
        </mxCell>
        <mxCell id="oBpY7kK_RExmCe1GZTvU-13" value="&lt;font style=&quot;font-size: 15px;&quot;&gt;&lt;font&gt;+uploadFile(file: PDF)&lt;/font&gt;&lt;br&gt;&lt;font&gt;+validateFile(file: PDF):Boolean&lt;/font&gt;&lt;br&gt;&lt;/font&gt;&lt;div&gt;&lt;font style=&quot;font-size: 15px;&quot;&gt;+cancelUpload()&lt;/font&gt;&lt;/div&gt;&lt;div&gt;&lt;font style=&quot;font-size: 15px;&quot;&gt;+retryUpload(PDF file)&lt;/font&gt;&lt;/div&gt;&lt;div&gt;&lt;font style=&quot;font-size: 15px;&quot;&gt;+handleUploadError(String error)&lt;/font&gt;&lt;/div&gt;&lt;div&gt;&lt;font style=&quot;font-size: 15px;&quot;&gt;+&amp;nbsp;generateQuiz(PDF file)&lt;/font&gt;&lt;/div&gt;&lt;div&gt;&lt;font style=&quot;font-size: 15px;&quot;&gt;+&amp;nbsp;generateFlashcards(PDF file)&lt;br&gt;&lt;/font&gt;&lt;div&gt;&lt;span style=&quot;font-size: medium;&quot;&gt;&lt;br&gt;&lt;/span&gt;&lt;/div&gt;&lt;/div&gt;" style="align=left;strokeColor=none;fillColor=none;spacingLeft=4;spacingRight=4;fontSize=12;verticalAlign=top;resizable=0;rotatable=0;part=1;html=1;whiteSpace=wrap;" vertex="1" parent="oBpY7kK_RExmCe1GZTvU-12">
          <mxGeometry y="50" width="260" height="155" as="geometry" />
        </mxCell>
        <mxCell id="oBpY7kK_RExmCe1GZTvU-16" value="&amp;lt;&amp;lt;Entity&amp;gt;&amp;gt;&lt;div&gt;&lt;span style=&quot;text-align: start;&quot;&gt;PDFData&lt;/span&gt;&lt;/div&gt;" style="swimlane;childLayout=stackLayout;horizontal=1;startSize=50;horizontalStack=0;rounded=1;fontSize=14;fontStyle=0;strokeWidth=2;resizeParent=0;resizeLast=1;shadow=0;dashed=0;align=center;arcSize=4;whiteSpace=wrap;html=1;" vertex="1" parent="1">
          <mxGeometry x="1020" y="72.5" width="340" height="145" as="geometry" />
        </mxCell>
        <mxCell id="oBpY7kK_RExmCe1GZTvU-17" value="&lt;font style=&quot;font-size: 14px;&quot;&gt;+storeFile(PDF file)&lt;br&gt;+storeQuizData(List&amp;lt;Question&amp;gt; questions): void&lt;br&gt;+storeFlashcardsData(List&amp;lt;Flashcard&amp;gt;flashcards): void&lt;/font&gt;" style="align=left;strokeColor=none;fillColor=none;spacingLeft=4;spacingRight=4;fontSize=12;verticalAlign=top;resizable=0;rotatable=0;part=1;html=1;whiteSpace=wrap;" vertex="1" parent="oBpY7kK_RExmCe1GZTvU-16">
          <mxGeometry y="50" width="340" height="95" as="geometry" />
        </mxCell>
        <mxCell id="oBpY7kK_RExmCe1GZTvU-18" style="edgeStyle=orthogonalEdgeStyle;rounded=0;orthogonalLoop=1;jettySize=auto;html=1;exitX=0.5;exitY=1;exitDx=0;exitDy=0;" edge="1" parent="oBpY7kK_RExmCe1GZTvU-16" source="oBpY7kK_RExmCe1GZTvU-17" target="oBpY7kK_RExmCe1GZTvU-17">
          <mxGeometry relative="1" as="geometry" />
        </mxCell>
        <mxCell id="oBpY7kK_RExmCe1GZTvU-24" style="edgeStyle=orthogonalEdgeStyle;rounded=0;orthogonalLoop=1;jettySize=auto;html=1;exitX=1;exitY=0.5;exitDx=0;exitDy=0;entryX=0;entryY=0.5;entryDx=0;entryDy=0;startArrow=none;startFill=0;endArrow=none;" edge="1" parent="1" source="oBpY7kK_RExmCe1GZTvU-13" target="oBpY7kK_RExmCe1GZTvU-17">
          <mxGeometry relative="1" as="geometry" />
        </mxCell>
        <mxCell id="oBpY7kK_RExmCe1GZTvU-25" style="edgeStyle=orthogonalEdgeStyle;rounded=0;orthogonalLoop=1;jettySize=auto;html=1;exitX=1;exitY=0.5;exitDx=0;exitDy=0;entryX=-0.001;entryY=0.534;entryDx=0;entryDy=0;entryPerimeter=0;endArrow=none;startFill=0;" edge="1" parent="1" source="oBpY7kK_RExmCe1GZTvU-11" target="oBpY7kK_RExmCe1GZTvU-13">
          <mxGeometry relative="1" as="geometry">
            <Array as="points">
              <mxPoint x="640" y="178" />
              <mxPoint x="680" y="178" />
            </Array>
          </mxGeometry>
        </mxCell>
        <mxCell id="oBpY7kK_RExmCe1GZTvU-26" value="&amp;lt;&amp;lt;Boundary&amp;gt;&amp;gt;&lt;div&gt;QuizPage&lt;/div&gt;" style="swimlane;childLayout=stackLayout;horizontal=1;startSize=50;horizontalStack=0;rounded=1;fontSize=14;fontStyle=0;strokeWidth=2;resizeParent=0;resizeLast=1;shadow=0;dashed=0;align=center;arcSize=4;whiteSpace=wrap;html=1;" vertex="1" parent="1">
          <mxGeometry x="360" y="390" width="290" height="220" as="geometry" />
        </mxCell>
        <mxCell id="oBpY7kK_RExmCe1GZTvU-27" value="+selectQuiz()&lt;br&gt;+displayQuestion()&lt;br&gt;+submitAnswer(String answer)&lt;div&gt;+submitAnswer(String answer)&lt;/div&gt;&lt;div&gt;+showResults()&lt;/div&gt;+&lt;span style=&quot;font-size: medium;&quot;&gt;showFeedback(boolean isCorrect)&lt;/span&gt;&lt;br&gt;+&lt;span style=&quot;font-size: medium;&quot;&gt;submitQuiz()&lt;/span&gt;&lt;div&gt;+&lt;br&gt;&lt;div&gt;&lt;br&gt;&lt;/div&gt;&lt;/div&gt;" style="align=left;strokeColor=none;fillColor=none;spacingLeft=4;spacingRight=4;fontSize=12;verticalAlign=top;resizable=0;rotatable=0;part=1;html=1;whiteSpace=wrap;" vertex="1" parent="oBpY7kK_RExmCe1GZTvU-26">
          <mxGeometry y="50" width="290" height="170" as="geometry" />
        </mxCell>
        <mxCell id="oBpY7kK_RExmCe1GZTvU-28" value="&amp;lt;&amp;lt;Controller&amp;gt;&amp;gt;&lt;div&gt;&lt;span style=&quot;text-align: start;&quot;&gt;&lt;font style=&quot;font-size: 13px;&quot;&gt;QuizController&lt;/font&gt;&lt;/span&gt;&lt;/div&gt;" style="swimlane;childLayout=stackLayout;horizontal=1;startSize=50;horizontalStack=0;rounded=1;fontSize=14;fontStyle=0;strokeWidth=2;resizeParent=0;resizeLast=1;shadow=0;dashed=0;align=center;arcSize=4;whiteSpace=wrap;html=1;" vertex="1" parent="1">
          <mxGeometry x="760" y="390" width="270" height="180" as="geometry" />
        </mxCell>
        <mxCell id="oBpY7kK_RExmCe1GZTvU-29" value="+generateQuiz(PDFData pdf)&lt;br&gt;+&lt;span style=&quot;font-size: medium;&quot;&gt;showFeedback(boolean isCorrect)&lt;/span&gt;&lt;br&gt;+&lt;span style=&quot;font-size: medium;&quot;&gt;submitQuiz()&lt;/span&gt;" style="align=left;strokeColor=none;fillColor=none;spacingLeft=4;spacingRight=4;fontSize=12;verticalAlign=top;resizable=0;rotatable=0;part=1;html=1;whiteSpace=wrap;" vertex="1" parent="oBpY7kK_RExmCe1GZTvU-28">
          <mxGeometry y="50" width="270" height="130" as="geometry" />
        </mxCell>
        <mxCell id="oBpY7kK_RExmCe1GZTvU-30" value="&amp;lt;&amp;lt;Entity&amp;gt;&amp;gt;&lt;div&gt;&lt;span style=&quot;text-align: start;&quot;&gt;QuizData&lt;/span&gt;&lt;/div&gt;" style="swimlane;childLayout=stackLayout;horizontal=1;startSize=50;horizontalStack=0;rounded=1;fontSize=14;fontStyle=0;strokeWidth=2;resizeParent=0;resizeLast=1;shadow=0;dashed=0;align=center;arcSize=4;whiteSpace=wrap;html=1;" vertex="1" parent="1">
          <mxGeometry x="1150" y="390" width="160" height="120" as="geometry" />
        </mxCell>
        <mxCell id="oBpY7kK_RExmCe1GZTvU-31" value="+Attribute1&#xa;+Attribute2&#xa;+Attribute3" style="align=left;strokeColor=none;fillColor=none;spacingLeft=4;spacingRight=4;fontSize=12;verticalAlign=top;resizable=0;rotatable=0;part=1;html=1;whiteSpace=wrap;" vertex="1" parent="oBpY7kK_RExmCe1GZTvU-30">
          <mxGeometry y="50" width="160" height="70" as="geometry" />
        </mxCell>
        <mxCell id="oBpY7kK_RExmCe1GZTvU-35" value="&amp;lt;&amp;lt;Boundary&amp;gt;&amp;gt;&lt;div&gt;SignUpView&amp;nbsp;&lt;/div&gt;" style="swimlane;childLayout=stackLayout;horizontal=1;startSize=50;horizontalStack=0;rounded=1;fontSize=14;fontStyle=0;strokeWidth=2;resizeParent=0;resizeLast=1;shadow=0;dashed=0;align=center;arcSize=4;whiteSpace=wrap;html=1;" vertex="1" parent="1">
          <mxGeometry x="370" y="1000" width="160" height="120" as="geometry" />
        </mxCell>
        <mxCell id="oBpY7kK_RExmCe1GZTvU-36" value="+SelectSignUp()&lt;br&gt;+DisplaySignUpForm()&lt;br&gt;+FillSignUpForm()" style="align=left;strokeColor=none;fillColor=none;spacingLeft=4;spacingRight=4;fontSize=12;verticalAlign=top;resizable=0;rotatable=0;part=1;html=1;whiteSpace=wrap;" vertex="1" parent="oBpY7kK_RExmCe1GZTvU-35">
          <mxGeometry y="50" width="160" height="70" as="geometry" />
        </mxCell>
        <mxCell id="oBpY7kK_RExmCe1GZTvU-37" value="&amp;lt;&amp;lt;Controller&amp;gt;&amp;gt;&lt;div&gt;SignUp&lt;/div&gt;" style="swimlane;childLayout=stackLayout;horizontal=1;startSize=50;horizontalStack=0;rounded=1;fontSize=14;fontStyle=0;strokeWidth=2;resizeParent=0;resizeLast=1;shadow=0;dashed=0;align=center;arcSize=4;whiteSpace=wrap;html=1;" vertex="1" parent="1">
          <mxGeometry x="680" y="1000" width="160" height="120" as="geometry" />
        </mxCell>
        <mxCell id="oBpY7kK_RExmCe1GZTvU-38" value="+SendInformation()&lt;br&gt;+ValidateFields:&lt;font&gt;boolean&lt;/font&gt;&lt;div&gt;&lt;br&gt;&lt;/div&gt;" style="align=left;strokeColor=none;fillColor=none;spacingLeft=4;spacingRight=4;fontSize=12;verticalAlign=top;resizable=0;rotatable=0;part=1;html=1;whiteSpace=wrap;" vertex="1" parent="oBpY7kK_RExmCe1GZTvU-37">
          <mxGeometry y="50" width="160" height="70" as="geometry" />
        </mxCell>
        <mxCell id="oBpY7kK_RExmCe1GZTvU-39" value="&amp;lt;&amp;lt;Entity&amp;gt;&amp;gt;&lt;div&gt;UserAcc&lt;/div&gt;" style="swimlane;childLayout=stackLayout;horizontal=1;startSize=50;horizontalStack=0;rounded=1;fontSize=14;fontStyle=0;strokeWidth=2;resizeParent=0;resizeLast=1;shadow=0;dashed=0;align=center;arcSize=4;whiteSpace=wrap;html=1;" vertex="1" parent="1">
          <mxGeometry x="990" y="1000" width="160" height="120" as="geometry" />
        </mxCell>
        <mxCell id="oBpY7kK_RExmCe1GZTvU-40" value="CreateAccount()" style="align=left;strokeColor=none;fillColor=none;spacingLeft=4;spacingRight=4;fontSize=12;verticalAlign=top;resizable=0;rotatable=0;part=1;html=1;whiteSpace=wrap;" vertex="1" parent="oBpY7kK_RExmCe1GZTvU-39">
          <mxGeometry y="50" width="160" height="70" as="geometry" />
        </mxCell>
        <mxCell id="oBpY7kK_RExmCe1GZTvU-41" style="edgeStyle=orthogonalEdgeStyle;rounded=0;orthogonalLoop=1;jettySize=auto;html=1;exitX=1;exitY=0.25;exitDx=0;exitDy=0;entryX=0;entryY=0.25;entryDx=0;entryDy=0;endArrow=none;startFill=0;" edge="1" parent="1" source="oBpY7kK_RExmCe1GZTvU-36" target="oBpY7kK_RExmCe1GZTvU-38">
          <mxGeometry relative="1" as="geometry" />
        </mxCell>
        <mxCell id="oBpY7kK_RExmCe1GZTvU-42" style="edgeStyle=orthogonalEdgeStyle;rounded=0;orthogonalLoop=1;jettySize=auto;html=1;exitX=1;exitY=0.25;exitDx=0;exitDy=0;entryX=0;entryY=0.25;entryDx=0;entryDy=0;endArrow=none;startFill=0;" edge="1" parent="1">
          <mxGeometry relative="1" as="geometry">
            <mxPoint x="840" y="1059.5" as="sourcePoint" />
            <mxPoint x="990" y="1059.5" as="targetPoint" />
          </mxGeometry>
        </mxCell>
        <mxCell id="oBpY7kK_RExmCe1GZTvU-43" value="&amp;lt;&amp;lt;Boundary&amp;gt;&amp;gt;&lt;div&gt;LogInPage&amp;nbsp;&lt;/div&gt;" style="swimlane;childLayout=stackLayout;horizontal=1;startSize=50;horizontalStack=0;rounded=1;fontSize=14;fontStyle=0;strokeWidth=2;resizeParent=0;resizeLast=1;shadow=0;dashed=0;align=center;arcSize=4;whiteSpace=wrap;html=1;" vertex="1" parent="1">
          <mxGeometry x="370" y="1350" width="160" height="120" as="geometry" />
        </mxCell>
        <mxCell id="oBpY7kK_RExmCe1GZTvU-44" value="+SelectLogIn()&lt;br&gt;+DisplayLogInForm()&lt;br&gt;+FillLogInForm()" style="align=left;strokeColor=none;fillColor=none;spacingLeft=4;spacingRight=4;fontSize=12;verticalAlign=top;resizable=0;rotatable=0;part=1;html=1;whiteSpace=wrap;" vertex="1" parent="oBpY7kK_RExmCe1GZTvU-43">
          <mxGeometry y="50" width="160" height="70" as="geometry" />
        </mxCell>
        <mxCell id="oBpY7kK_RExmCe1GZTvU-45" value="&amp;lt;&amp;lt;Controller&amp;gt;&amp;gt;&lt;div&gt;LogIn&lt;/div&gt;" style="swimlane;childLayout=stackLayout;horizontal=1;startSize=50;horizontalStack=0;rounded=1;fontSize=14;fontStyle=0;strokeWidth=2;resizeParent=0;resizeLast=1;shadow=0;dashed=0;align=center;arcSize=4;whiteSpace=wrap;html=1;" vertex="1" parent="1">
          <mxGeometry x="680" y="1350" width="160" height="120" as="geometry" />
        </mxCell>
        <mxCell id="oBpY7kK_RExmCe1GZTvU-46" value="+ValidateFields:&lt;font&gt;boolean&lt;/font&gt;&lt;div&gt;&lt;br&gt;&lt;/div&gt;" style="align=left;strokeColor=none;fillColor=none;spacingLeft=4;spacingRight=4;fontSize=12;verticalAlign=top;resizable=0;rotatable=0;part=1;html=1;whiteSpace=wrap;" vertex="1" parent="oBpY7kK_RExmCe1GZTvU-45">
          <mxGeometry y="50" width="160" height="70" as="geometry" />
        </mxCell>
        <mxCell id="oBpY7kK_RExmCe1GZTvU-49" value="&amp;lt;&amp;lt;Entity&amp;gt;&amp;gt;&lt;div&gt;User&lt;/div&gt;" style="swimlane;childLayout=stackLayout;horizontal=1;startSize=50;horizontalStack=0;rounded=1;fontSize=14;fontStyle=0;strokeWidth=2;resizeParent=0;resizeLast=1;shadow=0;dashed=0;align=center;arcSize=4;whiteSpace=wrap;html=1;" vertex="1" parent="1">
          <mxGeometry x="980" y="1350" width="160" height="120" as="geometry" />
        </mxCell>
        <mxCell id="oBpY7kK_RExmCe1GZTvU-50" value="LogIn()" style="align=left;strokeColor=none;fillColor=none;spacingLeft=4;spacingRight=4;fontSize=12;verticalAlign=top;resizable=0;rotatable=0;part=1;html=1;whiteSpace=wrap;" vertex="1" parent="oBpY7kK_RExmCe1GZTvU-49">
          <mxGeometry y="50" width="160" height="70" as="geometry" />
        </mxCell>
        <mxCell id="oBpY7kK_RExmCe1GZTvU-53" style="edgeStyle=orthogonalEdgeStyle;rounded=0;orthogonalLoop=1;jettySize=auto;html=1;exitX=1;exitY=0.25;exitDx=0;exitDy=0;entryX=0;entryY=0.25;entryDx=0;entryDy=0;endArrow=none;startFill=0;" edge="1" parent="1" source="oBpY7kK_RExmCe1GZTvU-44" target="oBpY7kK_RExmCe1GZTvU-46">
          <mxGeometry relative="1" as="geometry" />
        </mxCell>
        <mxCell id="oBpY7kK_RExmCe1GZTvU-54" style="edgeStyle=orthogonalEdgeStyle;rounded=0;orthogonalLoop=1;jettySize=auto;html=1;exitX=1;exitY=0.25;exitDx=0;exitDy=0;entryX=0;entryY=0.25;entryDx=0;entryDy=0;endArrow=none;startFill=0;" edge="1" parent="1" source="oBpY7kK_RExmCe1GZTvU-46" target="oBpY7kK_RExmCe1GZTvU-50">
          <mxGeometry relative="1" as="geometry" />
        </mxCell>
      </root>
    </mxGraphModel>
  </diagram>
</mxfile>
